<mxfile host="app.diagrams.net" modified="2023-08-11T16:42:25.582Z" agent="Mozilla/5.0 (X11; Linux x86_64) AppleWebKit/537.36 (KHTML, like Gecko) Chrome/114.0.0.0 Safari/537.36" etag="DdYhoay8SyvFUk0kl4GS" version="21.6.8" type="device">
  <diagram name="Page-1" id="YiStbX77V7twEhbRf2k6">
    <mxGraphModel dx="819" dy="450" grid="1" gridSize="10" guides="1" tooltips="1" connect="1" arrows="1" fold="1" page="1" pageScale="1" pageWidth="827" pageHeight="1169" math="0" shadow="0">
      <root>
        <mxCell id="0" />
        <mxCell id="1" parent="0" />
        <mxCell id="wXiooopaUke7DxHiC4jj-30" style="edgeStyle=orthogonalEdgeStyle;rounded=0;orthogonalLoop=1;jettySize=auto;html=1;exitX=1;exitY=0.5;exitDx=0;exitDy=0;" edge="1" parent="1" source="wXiooopaUke7DxHiC4jj-1" target="wXiooopaUke7DxHiC4jj-29">
          <mxGeometry relative="1" as="geometry" />
        </mxCell>
        <mxCell id="wXiooopaUke7DxHiC4jj-33" style="edgeStyle=orthogonalEdgeStyle;rounded=0;orthogonalLoop=1;jettySize=auto;html=1;exitX=0.75;exitY=1;exitDx=0;exitDy=0;entryX=0;entryY=0.5;entryDx=0;entryDy=0;" edge="1" parent="1" source="wXiooopaUke7DxHiC4jj-1" target="wXiooopaUke7DxHiC4jj-32">
          <mxGeometry relative="1" as="geometry" />
        </mxCell>
        <mxCell id="wXiooopaUke7DxHiC4jj-1" value="Customer" style="rounded=1;arcSize=10;whiteSpace=wrap;html=1;align=center;fillColor=#d5e8d4;strokeColor=#82b366;" vertex="1" parent="1">
          <mxGeometry x="110" y="330" width="100" height="40" as="geometry" />
        </mxCell>
        <mxCell id="wXiooopaUke7DxHiC4jj-6" style="edgeStyle=orthogonalEdgeStyle;rounded=0;orthogonalLoop=1;jettySize=auto;html=1;exitX=0.5;exitY=1;exitDx=0;exitDy=0;entryX=0;entryY=0.5;entryDx=0;entryDy=0;endArrow=none;endFill=0;" edge="1" parent="1" source="wXiooopaUke7DxHiC4jj-2" target="wXiooopaUke7DxHiC4jj-1">
          <mxGeometry relative="1" as="geometry" />
        </mxCell>
        <mxCell id="wXiooopaUke7DxHiC4jj-2" value="Phone Number" style="ellipse;whiteSpace=wrap;html=1;align=center;fontStyle=4;fillColor=#dae8fc;strokeColor=#6c8ebf;" vertex="1" parent="1">
          <mxGeometry x="10" y="220" width="100" height="40" as="geometry" />
        </mxCell>
        <mxCell id="wXiooopaUke7DxHiC4jj-9" style="edgeStyle=orthogonalEdgeStyle;rounded=0;orthogonalLoop=1;jettySize=auto;html=1;exitX=0.5;exitY=1;exitDx=0;exitDy=0;entryX=0.5;entryY=0;entryDx=0;entryDy=0;endArrow=none;endFill=0;" edge="1" parent="1" source="wXiooopaUke7DxHiC4jj-3" target="wXiooopaUke7DxHiC4jj-1">
          <mxGeometry relative="1" as="geometry" />
        </mxCell>
        <mxCell id="wXiooopaUke7DxHiC4jj-3" value="Name" style="ellipse;whiteSpace=wrap;html=1;align=center;fillColor=#dae8fc;strokeColor=#6c8ebf;" vertex="1" parent="1">
          <mxGeometry x="140" y="210" width="100" height="40" as="geometry" />
        </mxCell>
        <mxCell id="wXiooopaUke7DxHiC4jj-10" style="edgeStyle=orthogonalEdgeStyle;rounded=0;orthogonalLoop=1;jettySize=auto;html=1;exitX=0.5;exitY=0;exitDx=0;exitDy=0;entryX=0.5;entryY=1;entryDx=0;entryDy=0;endArrow=none;endFill=0;" edge="1" parent="1" source="wXiooopaUke7DxHiC4jj-4" target="wXiooopaUke7DxHiC4jj-1">
          <mxGeometry relative="1" as="geometry" />
        </mxCell>
        <mxCell id="wXiooopaUke7DxHiC4jj-4" value="Address" style="ellipse;whiteSpace=wrap;html=1;align=center;fillColor=#dae8fc;strokeColor=#6c8ebf;" vertex="1" parent="1">
          <mxGeometry x="10" y="420" width="100" height="40" as="geometry" />
        </mxCell>
        <mxCell id="wXiooopaUke7DxHiC4jj-11" value="Menu" style="rounded=1;arcSize=10;whiteSpace=wrap;html=1;align=center;fillColor=#d5e8d4;strokeColor=#82b366;" vertex="1" parent="1">
          <mxGeometry x="580" y="350" width="100" height="40" as="geometry" />
        </mxCell>
        <mxCell id="wXiooopaUke7DxHiC4jj-15" style="edgeStyle=orthogonalEdgeStyle;rounded=0;orthogonalLoop=1;jettySize=auto;html=1;entryX=0.25;entryY=0;entryDx=0;entryDy=0;endArrow=none;endFill=0;" edge="1" parent="1" source="wXiooopaUke7DxHiC4jj-12" target="wXiooopaUke7DxHiC4jj-11">
          <mxGeometry relative="1" as="geometry" />
        </mxCell>
        <mxCell id="wXiooopaUke7DxHiC4jj-12" value="Item Id" style="ellipse;whiteSpace=wrap;html=1;align=center;fontStyle=4;fillColor=#dae8fc;strokeColor=#6c8ebf;" vertex="1" parent="1">
          <mxGeometry x="480" y="260" width="100" height="40" as="geometry" />
        </mxCell>
        <mxCell id="wXiooopaUke7DxHiC4jj-16" style="edgeStyle=orthogonalEdgeStyle;rounded=0;orthogonalLoop=1;jettySize=auto;html=1;entryX=0.75;entryY=0;entryDx=0;entryDy=0;endArrow=none;endFill=0;" edge="1" parent="1" source="wXiooopaUke7DxHiC4jj-13" target="wXiooopaUke7DxHiC4jj-11">
          <mxGeometry relative="1" as="geometry" />
        </mxCell>
        <mxCell id="wXiooopaUke7DxHiC4jj-13" value="Item Name" style="ellipse;whiteSpace=wrap;html=1;align=center;fillColor=#dae8fc;strokeColor=#6c8ebf;" vertex="1" parent="1">
          <mxGeometry x="650" y="250" width="100" height="40" as="geometry" />
        </mxCell>
        <mxCell id="wXiooopaUke7DxHiC4jj-17" style="edgeStyle=orthogonalEdgeStyle;rounded=0;orthogonalLoop=1;jettySize=auto;html=1;entryX=0.5;entryY=1;entryDx=0;entryDy=0;endArrow=none;endFill=0;" edge="1" parent="1" source="wXiooopaUke7DxHiC4jj-14" target="wXiooopaUke7DxHiC4jj-11">
          <mxGeometry relative="1" as="geometry" />
        </mxCell>
        <mxCell id="wXiooopaUke7DxHiC4jj-14" value="Cost" style="ellipse;whiteSpace=wrap;html=1;align=center;fillColor=#dae8fc;strokeColor=#6c8ebf;" vertex="1" parent="1">
          <mxGeometry x="580" y="450" width="100" height="40" as="geometry" />
        </mxCell>
        <mxCell id="wXiooopaUke7DxHiC4jj-18" value="Orders" style="rounded=1;arcSize=10;whiteSpace=wrap;html=1;align=center;fillColor=#d5e8d4;strokeColor=#82b366;" vertex="1" parent="1">
          <mxGeometry x="300" y="560" width="100" height="40" as="geometry" />
        </mxCell>
        <mxCell id="wXiooopaUke7DxHiC4jj-24" style="edgeStyle=orthogonalEdgeStyle;rounded=0;orthogonalLoop=1;jettySize=auto;html=1;exitX=1;exitY=0.5;exitDx=0;exitDy=0;entryX=0;entryY=0.5;entryDx=0;entryDy=0;endArrow=none;endFill=0;" edge="1" parent="1" source="wXiooopaUke7DxHiC4jj-19" target="wXiooopaUke7DxHiC4jj-18">
          <mxGeometry relative="1" as="geometry" />
        </mxCell>
        <mxCell id="wXiooopaUke7DxHiC4jj-19" value="Order Id" style="ellipse;whiteSpace=wrap;html=1;align=center;fontStyle=4;fillColor=#dae8fc;strokeColor=#6c8ebf;" vertex="1" parent="1">
          <mxGeometry x="140" y="545" width="100" height="40" as="geometry" />
        </mxCell>
        <mxCell id="wXiooopaUke7DxHiC4jj-25" style="edgeStyle=orthogonalEdgeStyle;rounded=0;orthogonalLoop=1;jettySize=auto;html=1;exitX=1;exitY=0.5;exitDx=0;exitDy=0;entryX=0.25;entryY=1;entryDx=0;entryDy=0;endArrow=none;endFill=0;" edge="1" parent="1" source="wXiooopaUke7DxHiC4jj-20" target="wXiooopaUke7DxHiC4jj-18">
          <mxGeometry relative="1" as="geometry" />
        </mxCell>
        <mxCell id="wXiooopaUke7DxHiC4jj-20" value="Item id" style="ellipse;whiteSpace=wrap;html=1;align=center;fillColor=#dae8fc;strokeColor=#6c8ebf;" vertex="1" parent="1">
          <mxGeometry x="180" y="640" width="100" height="40" as="geometry" />
        </mxCell>
        <mxCell id="wXiooopaUke7DxHiC4jj-26" style="edgeStyle=orthogonalEdgeStyle;rounded=0;orthogonalLoop=1;jettySize=auto;html=1;exitX=0.5;exitY=0;exitDx=0;exitDy=0;entryX=0.5;entryY=1;entryDx=0;entryDy=0;endArrow=none;endFill=0;" edge="1" parent="1" source="wXiooopaUke7DxHiC4jj-21" target="wXiooopaUke7DxHiC4jj-18">
          <mxGeometry relative="1" as="geometry" />
        </mxCell>
        <mxCell id="wXiooopaUke7DxHiC4jj-21" value="Customer&lt;br&gt;Phone No." style="ellipse;whiteSpace=wrap;html=1;align=center;fillColor=#dae8fc;strokeColor=#6c8ebf;" vertex="1" parent="1">
          <mxGeometry x="300" y="680" width="100" height="40" as="geometry" />
        </mxCell>
        <mxCell id="wXiooopaUke7DxHiC4jj-27" style="edgeStyle=orthogonalEdgeStyle;rounded=0;orthogonalLoop=1;jettySize=auto;html=1;exitX=0;exitY=0.5;exitDx=0;exitDy=0;entryX=0.75;entryY=1;entryDx=0;entryDy=0;endArrow=none;endFill=0;" edge="1" parent="1" source="wXiooopaUke7DxHiC4jj-22" target="wXiooopaUke7DxHiC4jj-18">
          <mxGeometry relative="1" as="geometry" />
        </mxCell>
        <mxCell id="wXiooopaUke7DxHiC4jj-22" value="Customer Name" style="ellipse;whiteSpace=wrap;html=1;align=center;fillColor=#dae8fc;strokeColor=#6c8ebf;" vertex="1" parent="1">
          <mxGeometry x="420" y="640" width="100" height="40" as="geometry" />
        </mxCell>
        <mxCell id="wXiooopaUke7DxHiC4jj-28" style="edgeStyle=orthogonalEdgeStyle;rounded=0;orthogonalLoop=1;jettySize=auto;html=1;exitX=0;exitY=0.5;exitDx=0;exitDy=0;entryX=1;entryY=0.5;entryDx=0;entryDy=0;endArrow=none;endFill=0;" edge="1" parent="1" source="wXiooopaUke7DxHiC4jj-23" target="wXiooopaUke7DxHiC4jj-18">
          <mxGeometry relative="1" as="geometry" />
        </mxCell>
        <mxCell id="wXiooopaUke7DxHiC4jj-23" value="Address" style="ellipse;whiteSpace=wrap;html=1;align=center;fillColor=#dae8fc;strokeColor=#6c8ebf;" vertex="1" parent="1">
          <mxGeometry x="450" y="565" width="100" height="40" as="geometry" />
        </mxCell>
        <mxCell id="wXiooopaUke7DxHiC4jj-31" style="edgeStyle=orthogonalEdgeStyle;rounded=0;orthogonalLoop=1;jettySize=auto;html=1;exitX=1;exitY=0.5;exitDx=0;exitDy=0;entryX=0;entryY=0.5;entryDx=0;entryDy=0;" edge="1" parent="1" source="wXiooopaUke7DxHiC4jj-29" target="wXiooopaUke7DxHiC4jj-11">
          <mxGeometry relative="1" as="geometry" />
        </mxCell>
        <mxCell id="wXiooopaUke7DxHiC4jj-29" value="Browse" style="shape=rhombus;perimeter=rhombusPerimeter;whiteSpace=wrap;html=1;align=center;fillColor=#f8cecc;strokeColor=#b85450;" vertex="1" parent="1">
          <mxGeometry x="310" y="330" width="120" height="60" as="geometry" />
        </mxCell>
        <mxCell id="wXiooopaUke7DxHiC4jj-34" style="edgeStyle=orthogonalEdgeStyle;rounded=0;orthogonalLoop=1;jettySize=auto;html=1;exitX=0.5;exitY=1;exitDx=0;exitDy=0;" edge="1" parent="1" source="wXiooopaUke7DxHiC4jj-32" target="wXiooopaUke7DxHiC4jj-18">
          <mxGeometry relative="1" as="geometry" />
        </mxCell>
        <mxCell id="wXiooopaUke7DxHiC4jj-32" value="Order" style="shape=rhombus;perimeter=rhombusPerimeter;whiteSpace=wrap;html=1;align=center;fillColor=#f8cecc;strokeColor=#b85450;" vertex="1" parent="1">
          <mxGeometry x="290" y="440" width="120" height="60" as="geometry" />
        </mxCell>
      </root>
    </mxGraphModel>
  </diagram>
</mxfile>
